<?xml version="1.0" encoding="utf-8"?>
<!-- Generator: Adobe Illustrator 25.2.0, SVG Export Plug-In . SVG Version: 6.00 Build 0)  -->
<svg version="1.1" id="Layer_1" xmlns="http://www.w3.org/2000/svg" xmlns:xlink="http://www.w3.org/1999/xlink" x="0px" y="0px"
	 viewBox="0 0 500 500" style="enable-background:new 0 0 500 500;" xml:space="preserve">
<style type="text/css">
	.st0{fill:#FFFFFF;}
	.st1{fill:#873293;}
	.st2{fill:url(#SVGID_1_);}
</style>
<g id="good-game-logo">
	<g>
		<path class="st0" d="M351.9,247.3"/>
		<circle class="st1" cx="250" cy="250" r="215.8"/>
		
			<linearGradient id="SVGID_1_" gradientUnits="userSpaceOnUse" x1="25.8342" y1="-595.8436" x2="457.4727" y2="-595.8436" gradientTransform="matrix(0.831 -0.5563 0.5563 0.831 380.1538 880.0778)">
			<stop  offset="0" style="stop-color:#CA4C9C;stop-opacity:0"/>
			<stop  offset="2.000000e-02" style="stop-color:#CB4B9B;stop-opacity:3.000000e-02"/>
			<stop  offset="0.17" style="stop-color:#D44096;stop-opacity:0.28"/>
			<stop  offset="0.33" style="stop-color:#DC3692;stop-opacity:0.5"/>
			<stop  offset="0.48" style="stop-color:#E22E8E;stop-opacity:0.68"/>
			<stop  offset="0.62" style="stop-color:#E7288C;stop-opacity:0.82"/>
			<stop  offset="0.76" style="stop-color:#EA248A;stop-opacity:0.92"/>
			<stop  offset="0.89" style="stop-color:#EC2188;stop-opacity:0.98"/>
			<stop  offset="1" style="stop-color:#ED2088"/>
		</linearGradient>
		<circle class="st2" cx="249.5" cy="250.5" r="215.8"/>
		<g>
			<path class="st0" d="M257.2,214.4h-13.7c-2.5,0-4.6,1.6-5.3,4c-0.7,2.9,1,5.8,3.9,6.6c0.4,0.1,0.9,0.2,1.3,0.2h13.7
				c2.5,0,4.7-1.7,5.3-4.1c0.7-2.9-1.1-5.8-4-6.5C258,214.4,257.6,214.4,257.2,214.4z"/>
			<path class="st0" d="M399.5,270.7c-4.3-24.8-13.7-47.3-26.2-63.5c-12.6-16.1-28.8-24.9-43.7-22.3c-6.3,1.1-17.1,8.5-17.1,8.5
				h-56.1v-23h-13.3c-5.4-0.1-13.7-0.3-22.7-1.2c-19.9-2.1-33.8-6.5-40.1-12.8c-4.9-4.6-5.2-12.3-0.6-17.2c0.2-0.2,0.4-0.4,0.6-0.6
				c11.6-11,45.8-10,73.4-9.2l15.1,0.4h4.2v-0.2c0,0,13.9-0.4,22.8-1.3c21.5-2.2,36.1-7,43.5-14.3c3.7-3.8,5.6-8.1,5.5-13
				c0-4.9-2.1-9.5-5.6-12.9C325.9,75.4,292,76.5,262,77.4c-5.9,0.2-11.4,0.4-16.5,0.4c-1.5,0-2.7,1.3-2.7,2.8s1.3,2.7,2.8,2.7
				c5.1,0,10.7-0.2,16.5-0.4c27.6-0.8,61.7-1.8,73.4,9.2c2.5,2.3,3.9,5.6,3.9,9c0.1,3.4-1.4,6.6-3.9,8.9
				c-6.3,6.3-20.2,10.7-40.1,12.8c-8.7,0.9-17.5,1.3-26.3,1.3l0,0l-15-0.3c-30-0.9-64-2-77.2,10.7c-3.6,3.3-5.6,8-5.6,12.9
				c-0.1,4.9,1.9,9.6,5.5,12.9c7.3,7.2,21.9,12,43.4,14.3c9.3,1,17.7,1.2,23.3,1.3v17.4H184c-4.8-4.3-10.8-7.3-17.1-8.5
				c-14.9-2.6-30.5,5.3-43.8,22.3s-21.8,38.7-26.2,63.5c-4.4,24.8-3.2,49.2,3.2,68.6s18.8,33.3,33.7,35.9
				c23.2,4.1,47.7-18.1,61.6-55.4H301c13,34.4,34.7,55.9,56.2,55.9c1.8,0,3.7-0.2,5.5-0.5c14.9-2.7,26.8-15.3,33.6-35.9
				C403.1,318.7,403.9,295.6,399.5,270.7z M316,327.2c-2.3-4.7-4.2-9.5-5.9-14.5l-1.3-3.7H187.6l-1.2,3.7c-1.7,4.7-3.6,9.4-5.7,13.9
				c-61.1,29.1-57.7-77.1-56-102c2.2-3.6,4.5-7.1,7-10.4c10.7-13.7,22.6-20.2,33.3-18.4c5,1,9.5,3.5,13,7.1l1.6,1.6H317l1.5-1.6
				c4-3.9,8.3-6.3,13-7.1c10.7-1.8,22.6,4.7,33.3,18.4c3,3.9,5.8,8,8.2,12.3C374.5,253.3,377.2,357.2,316,327.2L316,327.2z"/>
			<path class="st0" d="M217.4,248.1H200c-1.2,0-2.2-1-2.2-2.2v-17.4c-0.1-4.2-3.4-7.6-7.7-7.7h-1.2c-4.2,0-7.7,3.4-7.8,7.7v18
				c0.1,1.2-0.9,2.2-2,2.2H179h-17.4c-4.2-0.1-7.7,3.3-7.8,7.6v0.1v1.2c0,4.2,3.4,7.7,7.7,7.7h0.1H179c1.2,0,2.1,1,2.1,2.1v0.1v17.4
				c0,4.2,3.4,7.7,7.7,7.7h0.1h1.2c4.2,0,7.7-3.4,7.7-7.7v-18c0-1.2,1-2.1,2.1-2.1h0.1h17.4c4.2-0.1,7.7-3.5,7.7-7.8v-1.2
				C225,251.5,221.7,248.1,217.4,248.1z M191.6,226.9l0.3,0.4L191.6,226.9z"/>
			<path class="st0" d="M320.2,268.1c-2.4-2.4-5.7-3.8-9.2-3.8c-3.4,0-6.7,1.3-9.1,3.8c-5,5.1-5,13.2,0,18.3
				c2.4,2.4,5.7,3.8,9.1,3.8s6.8-1.3,9.2-3.8C325.2,281.3,325.2,273.1,320.2,268.1z"/>
			<path class="st0" d="M320.3,223.1c-5.5-4.6-13.6-4-18.3,1.5c-4.1,4.8-4.1,11.9,0,16.8c5.1,5,13.2,5,18.3,0
				C325.3,236.3,325.3,228.1,320.3,223.1z"/>
			<path class="st0" d="M296.1,247.2c-5.5-4.6-13.6-4-18.3,1.5c-4.1,4.8-4.1,11.9,0,16.8c5.1,5,13.2,5,18.3,0
				C301.1,260.5,301.1,252.3,296.1,247.2L296.1,247.2z"/>
			<path class="st0" d="M344.4,245.5c-5.1-5-13.2-5-18.3,0c-5,5.1-5,13.2,0,18.3c2.4,2.4,5.7,3.8,9.1,3.8c7.2,0,12.9-5.9,12.9-13
				C348.1,251.2,346.8,247.9,344.4,245.5z"/>
		</g>
	</g>
</g>
</svg>
